<?xml version="1.0" encoding="UTF-8"?>
<svg version="1.1" xmlns="http://www.w3.org/2000/svg" width="1024" height="1024">
<path d="M0 0 C337.92 0 675.84 0 1024 0 C1024 337.92 1024 675.84 1024 1024 C686.08 1024 348.16 1024 0 1024 C0 686.08 0 348.16 0 0 Z " fill="#FDFDFD" transform="translate(0,0)"/>
<path d="M0 0 C1.50313045 0.00748707 3.00627085 0.01316828 4.50941467 0.01715088 C8.41067847 0.03221384 12.31131896 0.07132048 16.21234131 0.1159668 C20.21504287 0.15734474 24.21784802 0.17525137 28.22070312 0.1953125 C36.03413422 0.23784038 43.84705697 0.3058468 51.66015625 0.390625 C51.75178808 49.27535346 51.8222337 98.16007322 51.86441757 147.04487073 C51.86942017 152.82117373 51.87459748 158.59747655 51.87988281 164.3737793 C51.88093205 165.52369732 51.8819813 166.67361535 51.88306233 167.85837937 C51.90044944 186.45758425 51.93197778 205.05673949 51.96876743 223.65591495 C52.00622403 242.7520735 52.02840208 261.84820612 52.03651023 280.94439989 C52.04198821 292.7199562 52.05926609 304.49537215 52.09182212 316.27088524 C52.11302828 324.35481928 52.11934252 332.43868118 52.11416176 340.522641 C52.11160946 345.18093114 52.11541596 349.83897668 52.13697815 354.4972229 C52.15662555 358.77333505 52.15731009 363.04904105 52.14375183 367.32517297 C52.14207931 368.86113975 52.14699846 370.39713322 52.15968898 371.93304848 C52.31540247 391.96573821 47.6077878 410.41277119 34.16015625 425.859375 C22.16911282 438.00030647 6.83389177 445.37045325 -10.32836914 445.61767578 C-13.03198005 445.61736178 -15.73411086 445.60664244 -18.4375 445.5859375 C-19.88195091 445.58220006 -21.32640439 445.57935655 -22.77085876 445.57736206 C-26.54376417 445.56978306 -30.31651175 445.550185 -34.08935547 445.5279541 C-37.95082465 445.50737101 -41.81231972 445.49833389 -45.67382812 445.48828125 C-53.22923805 445.46693273 -60.78451865 445.4328675 -68.33984375 445.390625 C-68.40852435 395.40162587 -68.4613799 345.4126315 -68.49303974 295.42359446 C-68.49679182 289.52067748 -68.50067479 283.61776059 -68.50463867 277.71484375 C-68.5054256 276.53968926 -68.50621253 275.36453476 -68.50702331 274.15376952 C-68.52007389 255.13087449 -68.54372584 236.10800669 -68.57130214 217.0851278 C-68.59936598 197.56297732 -68.61602209 178.0408411 -68.62210923 158.51867127 C-68.62622363 146.47442027 -68.63921439 134.43024622 -68.66359315 122.3860189 C-68.67946239 114.12458533 -68.6842414 105.86319149 -68.68034788 97.60174379 C-68.6784282 92.83677742 -68.68135175 88.07194544 -68.69746017 83.30700302 C-68.71211744 78.93930583 -68.71275848 74.57183272 -68.70254043 70.20412496 C-68.70127856 68.62922017 -68.70503458 67.05430109 -68.7144933 65.47942421 C-68.81772847 47.21982247 -64.70611636 31.01328235 -51.73046875 17.57421875 C-47.87135002 14.04930475 -43.79441367 11.11448497 -39.33984375 8.390625 C-38.71851563 8.00261719 -38.0971875 7.61460937 -37.45703125 7.21484375 C-25.89355408 0.73228837 -12.93606493 -0.19336246 0 0 Z " fill="#FEBF1F" transform="translate(734.33984375,270.609375)"/>
<path d="M0 0 C0 138.6 0 277.2 0 420 C-83.39265267 420 -83.39265267 420 -103.59765625 400.56640625 C-121.49293037 381.44901585 -122.61318271 358.51248024 -122.49358058 333.70233274 C-122.48027811 330.01999142 -122.49035528 326.33769825 -122.49734497 322.65534973 C-122.50736849 315.46381695 -122.49622328 308.27246981 -122.47764437 301.08096012 C-122.45676009 292.6922299 -122.45701979 284.30353859 -122.45798953 275.91478726 C-122.4589882 260.94201327 -122.44073557 245.96932508 -122.41162109 230.99658203 C-122.38343126 216.49168333 -122.36928065 201.98686007 -122.37060547 187.48193359 C-122.37068538 186.58786235 -122.37076529 185.6937911 -122.37084763 184.77262679 C-122.37092834 183.88004773 -122.37100905 182.98746867 -122.3710922 182.06784177 C-122.37247414 165.51458782 -122.36068159 148.96136569 -122.34278577 132.40812208 C-122.33677108 126.57010738 -122.33462882 120.73209857 -122.33372116 114.89408112 C-122.33235261 107.77614813 -122.32336352 100.65826885 -122.30505554 93.54035863 C-122.2958646 89.91351495 -122.28971183 86.28673961 -122.29224396 82.6598835 C-122.29486158 78.71934907 -122.28186797 74.77895064 -122.26742554 70.83843994 C-122.27052274 69.70535062 -122.27361995 68.5722613 -122.276811 67.40483594 C-122.18028139 51.3962162 -118.61797612 37.94527596 -109 25 C-108.29875 24.01 -107.5975 23.02 -106.875 22 C-80.63090952 -8.1848964 -34.59815987 0 0 0 Z " fill="#307EC7" transform="translate(387,31)"/>
<path d="M0 0 C39.93 0 79.86 0 121 0 C121 76.56 121 153.12 121 232 C37.75732496 232 37.75732496 232 17.609375 212.87109375 C6.97625336 201.17147638 -0.26305968 186.24625422 -0.24050903 170.28039551 C-0.24307231 169.17983393 -0.24307231 169.17983393 -0.24568737 168.05703878 C-0.24895662 165.62190782 -0.23802137 163.1870583 -0.22705078 160.75195312 C-0.22648611 158.9971009 -0.22680432 157.2422482 -0.22793579 155.48739624 C-0.22850813 150.74004576 -0.21677311 145.99279696 -0.20278788 141.24547005 C-0.19026065 136.27803186 -0.18910845 131.31059119 -0.18673706 126.34313965 C-0.18052815 116.94398594 -0.16412529 107.54487893 -0.14403808 98.14574575 C-0.11747417 85.43945383 -0.10670168 72.73314909 -0.09503365 60.0268364 C-0.07624429 40.01785598 -0.03639466 20.00897407 0 0 Z " fill="#F21A1D" transform="translate(265,484)"/>
<path d="M0 0 C0 99.33 0 198.66 0 301 C-63.45 301 -63.45 301 -79.25 286.1875 C-92.40538759 272.34112235 -92.44704773 256.4983891 -92.40405273 238.48095703 C-92.40976292 236.31473439 -92.41672968 234.14851475 -92.42485046 231.9822998 C-92.44272555 226.12684149 -92.44162407 220.27153351 -92.43590808 214.41605616 C-92.43280794 209.51569547 -92.43891787 204.61536332 -92.44494683 199.71500671 C-92.458972 188.14835903 -92.45744756 176.58178523 -92.44604492 165.01513672 C-92.43456652 153.10901951 -92.44863946 141.20312763 -92.4754414 129.2970401 C-92.49764033 119.04951432 -92.5042263 108.80205906 -92.49836498 98.55451095 C-92.49500416 92.44526322 -92.49735228 86.33615989 -92.51461601 80.22693253 C-92.53014985 74.47954245 -92.52605823 68.73248467 -92.50731087 62.98510742 C-92.50364275 60.88497859 -92.50668112 58.78482479 -92.51719666 56.68471909 C-92.59273187 40.34209191 -91.88402801 25.55858051 -80 13 C-55.75948948 -7.92375944 -36.68525577 0 0 0 Z " fill="#FEBF1F" transform="translate(511,484)"/>
<path d="M0 0 C29.7 0 59.4 0 90 0 C90.04411227 33.20703651 90.0810324 66.41404452 90.10213066 99.62110152 C90.104632 103.54378778 90.10722065 107.46647399 90.10986328 111.38916016 C90.1103879 112.17007812 90.11091252 112.95099609 90.11145304 113.75557823 C90.12014955 126.39089149 90.13591537 139.0261865 90.15430559 151.66148894 C90.17302563 164.63181842 90.18412117 177.60213836 90.18817699 190.5724808 C90.19091768 198.57228997 90.19956598 206.57204755 90.21583293 214.57184084 C90.22768017 220.71181864 90.22890603 226.85175733 90.22621536 232.991745 C90.22676498 235.50636233 90.23073517 238.02098163 90.23841095 240.53558731 C90.24839094 243.97410333 90.24595759 247.41240033 90.24050903 250.85092163 C90.24633472 251.84122167 90.2521604 252.83152171 90.25816262 253.85183084 C90.1999974 267.47343948 86.69386926 278.27086716 77.1875 288.375 C56.08859308 307.85402923 27.24268482 301 0 301 C0 201.67 0 102.34 0 0 Z " fill="#D21E3B" transform="translate(543,484)"/>
<path d="M0 0 C0 99 0 198 0 300 C-65.36363636 300 -65.36363636 300 -80 286 C-88.33063655 275.20479861 -91.31833184 263.98239527 -91.26742554 250.52615356 C-91.27195665 249.62769459 -91.27648776 248.72923561 -91.28115618 247.8035506 C-91.29371779 244.82226775 -91.29218519 241.8411695 -91.29052734 238.85986328 C-91.29651765 236.71039599 -91.30332435 234.56093085 -91.31088257 232.41146851 C-91.32849627 226.5932471 -91.33323593 220.77508458 -91.33451414 214.95683908 C-91.33593865 211.31736932 -91.34021388 207.6779144 -91.34550858 204.03844833 C-91.36399187 191.32917078 -91.37218111 178.61993508 -91.37060547 165.91064453 C-91.36940378 154.08292722 -91.39051606 142.2553923 -91.4220928 130.42772114 C-91.44827891 120.25500831 -91.45897182 110.08235498 -91.45769465 99.90960872 C-91.45718581 93.84174417 -91.46282636 87.77404192 -91.48405075 81.70621109 C-91.50347297 75.99826435 -91.50353019 70.29063411 -91.48901749 64.58267593 C-91.48693342 62.49460384 -91.49160613 60.40651171 -91.5037384 58.31847382 C-91.58425612 43.49443186 -90.66511984 30.99958446 -81 19 C-80.39800781 18.24976563 -79.79601562 17.49953125 -79.17578125 16.7265625 C-74.71668854 11.74936569 -69.90150154 8.54760177 -64 5.5625 C-63.34789551 5.23241943 -62.69579102 4.90233887 -62.02392578 4.56225586 C-42.87379256 -4.55038533 -20.18559725 0 0 0 Z " fill="#2F7DC6" transform="translate(511,151)"/>
<path d="M0 0 C62.37407895 0 62.37407895 0 77.25 13.5625 C84.49909203 21.28988264 89.09690961 30.65918807 89.15821838 41.21827698 C89.1680072 42.49845703 89.17779602 43.77863708 89.18788147 45.09761047 C89.19378758 46.51632652 89.1995979 47.93504297 89.20532227 49.35375977 C89.21490909 50.85153468 89.22491964 52.34930694 89.23532104 53.84707642 C89.26244955 57.93590113 89.28345727 62.02473726 89.30332303 66.11360288 C89.32538838 70.46116647 89.35273136 74.80869726 89.37937927 79.15623474 C89.42377575 86.52495771 89.4644476 93.89369379 89.50268555 101.26245117 C89.54120911 108.68304483 89.58262891 116.103613 89.62768555 123.52416992 C89.63311926 124.42090254 89.63855296 125.31763517 89.64415133 126.2415415 C89.6551013 128.04788543 89.66605253 129.85422934 89.67700505 131.66057324 C89.77429421 147.750154 89.85453452 163.83972056 89.91693044 179.92947507 C89.95675941 190.14210368 90.01358359 200.35425188 90.10485345 210.56655771 C90.16084099 216.87053904 90.2038297 223.17451327 90.23661155 229.4786579 C90.25612937 233.1036644 90.28248161 236.72829656 90.3269062 240.35309029 C90.37515954 244.29388214 90.39185558 248.23446804 90.40600586 252.17553711 C90.42525808 253.30762793 90.44451031 254.43971874 90.46434593 255.60611534 C90.45143417 268.26519526 86.69384122 278.00545888 78 287.08984375 C57.16403521 307.0700457 26.8570842 300 0 300 C0 201 0 102 0 0 Z " fill="#44A44C" transform="translate(543,151)"/>
<path d="M0 0 C70.96677741 0 70.96677741 0 85 8 C85.86625 8.48082031 86.7325 8.96164063 87.625 9.45703125 C102.94105047 18.54030007 112.38730634 31.58721795 117.13464355 48.58828735 C119.15283387 57.61262531 118.59270035 67.10941609 118.56640625 76.30078125 C118.57165376 78.54933426 118.57793432 80.79788507 118.58518982 83.0464325 C118.59554807 87.740615 118.59109963 92.43449352 118.57641602 97.12866211 C118.55925335 103.09964539 118.58271782 109.06966399 118.61790562 115.04053974 C118.64002735 119.67958267 118.63840227 124.31840014 118.6301403 128.95747948 C118.62932852 131.15677128 118.6360415 133.35608096 118.65091133 135.55532265 C118.75321132 153.42279292 117.27313941 169.36386523 106 184 C105.42765625 184.77601563 104.8553125 185.55203125 104.265625 186.3515625 C91.02601623 202.81620417 72.1973058 206.62384638 52 209 C34.84 209.33 17.68 209.66 0 210 C0 140.7 0 71.4 0 0 Z " fill="#44A44D" transform="translate(668,31)"/>
<path d="M0 0 C8.25 0 16.5 0 25 0 C25 13.86 25 27.72 25 42 C41.83 42 58.66 42 76 42 C76 28.14 76 14.28 76 0 C84.58 0 93.16 0 102 0 C102 35.64 102 71.28 102 108 C93.42 108 84.84 108 76 108 C76 93.81 76 79.62 76 65 C59.17 65 42.34 65 25 65 C25 79.19 25 93.38 25 108 C16.75 108 8.5 108 0 108 C0 72.36 0 36.72 0 0 Z " fill="#161616" transform="translate(137,878)"/>
<path d="M0 0 C8.91 0 17.82 0 27 0 C32.02629822 10.70957715 36.70161666 21.54422927 41.3125 32.4375 C41.68551239 33.3173053 42.05852478 34.1971106 42.44284058 35.10357666 C46.85484179 45.51110112 51.25789241 55.92250425 55.5625 66.375 C55.92577393 67.25212646 56.28904785 68.12925293 56.66333008 69.03295898 C59 74.75735718 59 74.75735718 59 77 C59.66 77 60.32 77 61 77 C61.10094971 76.16509033 61.20189941 75.33018066 61.3059082 74.4699707 C62.09059347 70.54709639 63.48624957 67.11166139 65.10546875 63.48046875 C65.42159119 62.75630264 65.73771362 62.03213654 66.06341553 61.286026 C67.0987698 58.91716801 68.14316527 56.55241073 69.1875 54.1875 C70.64341432 50.86449905 72.0948861 47.5395614 73.546875 44.21484375 C73.91630722 43.37079987 74.28573944 42.52675598 74.66636658 41.65713501 C77.19534694 35.87169949 79.68360558 30.07025006 82.140625 24.25390625 C82.62629692 23.10422615 82.62629692 23.10422615 83.1217804 21.93132019 C84.36805318 18.97792542 85.61258603 16.02381241 86.85360718 13.06820679 C87.70127002 11.04986656 88.55164791 9.03268825 89.40234375 7.015625 C89.88179443 5.87383789 90.36124512 4.73205078 90.85522461 3.55566406 C92 1 92 1 93 0 C94.85369611 -0.08737645 96.71067541 -0.10698153 98.56640625 -0.09765625 C99.69111328 -0.09443359 100.81582031 -0.09121094 101.97460938 -0.08789062 C103.15861328 -0.07951172 104.34261719 -0.07113281 105.5625 -0.0625 C106.75037109 -0.05798828 107.93824219 -0.05347656 109.16210938 -0.04882812 C112.10812226 -0.03699675 115.05403681 -0.02051287 118 0 C115.66188803 7.44586665 112.7329091 14.5326086 109.625 21.6875 C109.09336066 22.91864961 108.56203656 24.1499354 108.03100586 25.38134766 C106.63741049 28.61027537 105.23921232 31.83718785 103.83966064 35.0635376 C102.75056059 37.57526816 101.66370356 40.087966 100.5769043 42.60069275 C96.47366295 52.08708919 92.35890972 61.56848764 88.24169922 71.04882812 C86.77496201 74.42616531 85.30901603 77.80384511 83.84347534 81.18170166 C83.02987746 83.05616476 82.21528203 84.93019201 81.40063477 86.80419922 C80.89717529 87.9645166 80.39371582 89.12483398 79.875 90.3203125 C79.22144531 91.82489014 79.22144531 91.82489014 78.5546875 93.35986328 C76.33445925 98.55829342 74.17411784 103.78211719 72 109 C63.42 109 54.84 109 46 109 C42.58980299 102.17960598 39.41531489 95.45660922 36.5 88.4375 C35.54555497 86.16091954 34.58969181 83.88493337 33.6328125 81.609375 C33.36489899 80.97198898 33.09698547 80.33460297 32.82095337 79.67790222 C28.3917827 69.15868037 23.87491143 58.67658962 19.375 48.1875 C18.48370627 46.1093012 17.59242994 44.03109495 16.70117188 41.95288086 C16.2671405 40.94113297 15.83310913 39.92938507 15.38592529 38.88697815 C14.52498379 36.87930372 13.6646644 34.87136239 12.80499268 32.86314392 C10.66868263 27.87519702 8.52023627 22.89310363 6.34863281 17.92041016 C5.92828766 16.95315506 5.5079425 15.98589996 5.07485962 14.98933411 C4.27835074 13.15738356 3.47759928 11.3272699 2.67196655 9.49931335 C2.31953888 8.68654434 1.96711121 7.87377533 1.60400391 7.03637695 C1.1374791 5.97118584 1.1374791 5.97118584 0.66152954 4.88447571 C0 3 0 3 0 0 Z " fill="#161616" transform="translate(358,878)"/>
<path d="M0 0 C7.92 0 15.84 0 24 0 C24.04898438 3.45597656 24.09796875 6.91195312 24.1484375 10.47265625 C24.2024982 13.83199266 24.25978576 17.19125969 24.31738281 20.55053711 C24.35558779 22.87926024 24.39045526 25.20804067 24.421875 27.53686523 C24.46770962 30.8906701 24.52567425 34.24408335 24.5859375 37.59765625 C24.59748871 38.63334244 24.60903992 39.66902863 24.62094116 40.73609924 C24.7927931 49.2162912 25.70896017 56.70896017 32 63 C35.67933677 64.34736276 39.49665886 64.2035528 43.375 64.25 C44.66148437 64.27578125 45.94796875 64.3015625 47.2734375 64.328125 C51.27319674 63.97594494 53.61581141 63.12069212 57 61 C60.62272798 56.30024478 62.10574272 52.76117975 62.20532227 46.88598633 C62.22526749 45.84513382 62.24521271 44.80428131 62.26576233 43.73188782 C62.28247482 42.60993515 62.29918732 41.48798248 62.31640625 40.33203125 C62.33718735 39.18208176 62.35796844 38.03213226 62.37937927 36.84733582 C62.44483342 33.16911875 62.50374074 29.49082952 62.5625 25.8125 C62.60568913 23.32095604 62.64930355 20.82941941 62.69335938 18.33789062 C62.8013119 12.22533335 62.90041666 6.11272233 63 0 C70.92 0 78.84 0 87 0 C87 28.05 87 56.1 87 85 C79.41 85 71.82 85 64 85 C63.505 80.545 63.505 80.545 63 76 C62.53851562 76.47050781 62.07703125 76.94101562 61.6015625 77.42578125 C53.06289347 85.57632896 44.54283794 86.51912953 33.12109375 86.49462891 C24.64422379 86.23140332 17.54431334 83.76750699 10.625 78.8125 C1.12480894 68.63372386 -0.30568825 58.82328651 -0.1953125 45.41015625 C-0.1924826 44.11049423 -0.18965271 42.81083221 -0.18673706 41.4717865 C-0.17914655 38.03750745 -0.15953823 34.60340093 -0.1373291 31.16918945 C-0.11677121 27.65643649 -0.1077142 24.14365531 -0.09765625 20.63085938 C-0.07628734 13.75382877 -0.04114328 6.87694046 0 0 Z " fill="#41A44D" transform="translate(698,901)"/>
<path d="M0 0 C1.32414917 -0.00845947 1.32414917 -0.00845947 2.67504883 -0.01708984 C10.810566 0.07257029 18.14496872 1.76961625 25.875 4.25 C26.8959375 4.56839844 27.916875 4.88679687 28.96875 5.21484375 C29.7628125 5.57707031 30.556875 5.93929687 31.375 6.3125 C32.375 9.3125 32.375 9.3125 31.75415039 11.12182617 C31.41375732 11.77642822 31.07336426 12.43103027 30.72265625 13.10546875 C30.35849609 13.81767578 29.99433594 14.52988281 29.61914062 15.26367188 C29.03422852 16.3706543 29.03422852 16.3706543 28.4375 17.5 C28.05142578 18.24958984 27.66535156 18.99917969 27.26757812 19.77148438 C26.31228243 21.62310689 25.34478423 23.46842452 24.375 25.3125 C23.78074219 25.11914062 23.18648437 24.92578125 22.57421875 24.7265625 C12.08775216 21.43221374 -1.7904869 17.13312003 -12.4453125 21.45703125 C-14.92462448 23.20557128 -14.92462448 23.20557128 -15.4375 26.5 C-15.5303125 27.8921875 -15.5303125 27.8921875 -15.625 29.3125 C-13.0837761 29.91857882 -10.5420944 30.52258999 -8 31.125 C-7.23034912 31.30804687 -6.46069824 31.49109375 -5.66772461 31.6796875 C-0.85634235 32.81516379 3.96395949 33.84493017 8.8125 34.8125 C18.63231608 36.91835505 27.57367129 39.70176848 33.69140625 48.125 C37.21298301 54.21106994 37.33023186 60.13731441 35.78515625 66.890625 C33.06247183 75.0712252 27.94665673 79.5735045 20.6953125 83.91796875 C12.24587274 87.75569139 3.842324 87.76650742 -5.3125 87.8125 C-7.16536621 87.82216797 -7.16536621 87.82216797 -9.05566406 87.83203125 C-21.95705072 87.65222098 -31.37809619 84.26674319 -42.625 78.3125 C-39.985 72.3725 -37.345 66.4325 -34.625 60.3125 C-28.625 62.3125 -28.625 62.3125 -25.3125 63.8125 C-17.56454151 66.96421193 -10.12531635 67.65449899 -1.8125 67.625 C-0.88501953 67.64111328 0.04246094 67.65722656 0.99804688 67.67382812 C1.89201172 67.67447266 2.78597656 67.67511719 3.70703125 67.67578125 C4.90936401 67.68025269 4.90936401 67.68025269 6.13598633 67.68481445 C8.94234589 67.21815887 10.32940203 66.26481337 12.375 64.3125 C12.70925735 61.68624861 12.70925735 61.68624861 12.375 59.3125 C6.16882188 56.24039756 -0.02673292 55.1892841 -6.8125 54 C-29.36673599 49.7376027 -29.36673599 49.7376027 -36.578125 40.0234375 C-40.12919647 34.2198207 -40.65525088 27.73131042 -39.125 21.16796875 C-36.42225472 13.13651546 -31.59349445 8.67992173 -24.32421875 4.63671875 C-16.30481862 0.70245443 -8.82727704 0.05383893 0 0 Z " fill="#42A44E" transform="translate(841.625,899.6875)"/>
<path d="M0 0 C5.68511343 3.62700115 10.59751235 8.13286677 13.1953125 14.4921875 C12.95385742 16.49047852 12.95385742 16.49047852 12.1953125 18.4921875 C9.74028652 20.09762215 7.42473321 21.43513621 4.8203125 22.7421875 C4.13453125 23.10570312 3.44875 23.46921875 2.7421875 23.84375 C-2.37546992 26.4921875 -2.37546992 26.4921875 -5.8046875 26.4921875 C-7.3828125 24.84765625 -7.3828125 24.84765625 -9.0546875 22.6796875 C-12.96338089 18.07882966 -16.27218926 15.91057935 -22.41015625 15.18359375 C-28.73326376 14.89578334 -33.6324423 15.7294404 -38.8046875 19.4921875 C-43.85090321 24.67478742 -46.23407701 30.07824278 -46.2421875 37.3046875 C-46.06143446 44.45196389 -45.02371409 49.9669426 -40.12109375 55.3359375 C-34.18286903 60.75057681 -28.975869 60.85425232 -21.0703125 60.765625 C-15.65229771 60.31196347 -11.81496732 58.79316955 -8.2109375 54.66796875 C-6.9929372 52.999985 -5.88713515 51.25116493 -4.8046875 49.4921875 C-0.53282225 51.02072685 3.18858113 53.20728231 7.0078125 55.6171875 C7.60529297 55.98972656 8.20277344 56.36226562 8.81835938 56.74609375 C10.27957501 57.6578923 11.73775835 58.57454726 13.1953125 59.4921875 C12.20162062 65.93443713 9.08207962 70.24131663 3.9609375 74.234375 C-8.50136422 82.21183566 -22.75909975 83.11353349 -37.1171875 80.8671875 C-49.03694462 77.94806331 -59.51131933 70.99277651 -66.1796875 60.6796875 C-72.15812001 49.76904817 -73.84175307 37.30093887 -70.6796875 25.1796875 C-68.89706944 20.04304399 -66.03217764 15.82723458 -62.8046875 11.4921875 C-61.9384375 10.1928125 -61.9384375 10.1928125 -61.0546875 8.8671875 C-45.55292218 -7.495787 -19.57078169 -10.52133946 0 0 Z " fill="#42A44E" transform="translate(598.8046875,905.5078125)"/>
<path d="M0 0 C8.25 0 16.5 0 25 0 C25 7.26 25 14.52 25 22 C31.93 22 38.86 22 46 22 C46 28.27 46 34.54 46 41 C39.07 41 32.14 41 25 41 C25.09695353 46.7661837 25.19969554 52.53165164 25.31738281 58.29736328 C25.35565327 60.2585622 25.39050954 62.21983084 25.421875 64.18115234 C25.4675674 67.00122997 25.525555 69.82082838 25.5859375 72.640625 C25.59748871 73.51680481 25.60903992 74.39298462 25.62094116 75.29571533 C25.64081085 76.11626404 25.66068054 76.93681274 25.68115234 77.78222656 C25.69447601 78.50170471 25.70779968 79.22118286 25.7215271 79.96246338 C26.04669514 82.34166003 26.74607346 83.95879833 28 86 C30.70238298 87.35119149 32.86014446 87.13237128 35.875 87.125 C36.92429687 87.12757813 37.97359375 87.13015625 39.0546875 87.1328125 C41.55676685 87.01998664 43.61756923 86.72508762 46 86 C46.86992154 88.05590454 47.72037689 90.12005336 48.5625 92.1875 C49.03816406 93.33605469 49.51382813 94.48460937 50.00390625 95.66796875 C51.02785798 99.09318769 51.32351806 100.70281466 50 104 C43.05726865 109.98274875 30.80092953 108.87011267 22.24902344 108.27050781 C15.7359693 107.48713135 11.09765107 104.43862439 6.625 99.8125 C0.98116512 92.20066569 -0.59667326 84.48854563 -0.390625 75.1796875 C-0.38496521 74.19501495 -0.37930542 73.21034241 -0.37347412 72.1958313 C-0.35130111 69.08836713 -0.30114185 65.98210843 -0.25 62.875 C-0.22991031 60.75262096 -0.2116639 58.63022363 -0.1953125 56.5078125 C-0.15149907 51.33808582 -0.08260627 46.16924641 0 41 C-3.96 41 -7.92 41 -12 41 C-12 34.73 -12 28.46 -12 22 C-8.04 22 -4.08 22 0 22 C0 14.74 0 7.48 0 0 Z " fill="#42A54E" transform="translate(630,879)"/>
<path d="M0 0 C8.25 0 16.5 0 25 0 C25 28.05 25 56.1 25 85 C16.75 85 8.5 85 0 85 C0 56.95 0 28.9 0 0 Z " fill="#181919" transform="translate(265,901)"/>
<path d="M0 0 C7.92 0 15.84 0 24 0 C24 28.05 24 56.1 24 85 C16.08 85 8.16 85 0 85 C0 56.95 0 28.9 0 0 Z " fill="#3FA34C" transform="translate(486,901)"/>
<path d="M0 0 C29.7 0 59.4 0 90 0 C90 86.46 90 172.92 90 262 C89.34 262.33 88.68 262.66 88 263 C88.33 176.54 88.66 90.08 89 1 C60.29 1 31.58 1 2 1 C2 99.34 2 197.68 2 299 C49.0109837 301.35716736 49.0109837 301.35716736 67 293 C68.65 292.34 70.3 291.68 72 291 C66.44100088 297.67079895 59.38261503 299.6028975 51 301 C34.17 301 17.34 301 0 301 C0 201.67 0 102.34 0 0 Z " fill="#AE172A" transform="translate(543,484)"/>
<path d="M0 0 C15.18 0 30.36 0 46 0 C46 6.27 46 12.54 46 19 C30.82 19 15.64 19 0 19 C0 12.73 0 6.46 0 0 Z " fill="#161717" transform="translate(310,935)"/>
<path d="M0 0 C4.50555431 2.55452529 7.13283471 5.01618268 8.75390625 10.08203125 C9.29406859 14.40332995 9.07903185 16.47822657 7.00390625 20.33203125 C3.67404189 24.40186547 0.85354905 26.75659543 -4.515625 27.3203125 C-10.29644269 27.48903068 -13.76465952 27.12625238 -18.24609375 23.08203125 C-21.66459279 19.20773234 -21.70759459 15.41409392 -21.5234375 10.44921875 C-21.14367282 7.20784699 -20.45517674 5.50489646 -18.24609375 3.08203125 C-12.51006941 -1.16262676 -6.84661321 -2.79818105 0 0 Z " fill="#42A44F" transform="translate(505.24609375,860.91796875)"/>
<path d="M0 0 C8.58 0 17.16 0 26 0 C26 35.64 26 71.28 26 108 C17.42 108 8.84 108 0 108 C0 93.81 0 79.62 0 65 C-16.83 65 -33.66 65 -51 65 C-51 64.34 -51 63.68 -51 63 C-33.84 63 -16.68 63 1 63 C2.14315747 65.28631494 2.12112732 66.54347406 2.11352539 69.08251953 C2.11344986 69.92324005 2.11337433 70.76396057 2.11329651 71.63015747 C2.10813522 72.53853363 2.10297394 73.44690979 2.09765625 74.3828125 C2.0962413 75.31221649 2.09482635 76.24162048 2.09336853 77.19918823 C2.08776053 80.17449124 2.07520668 83.14971964 2.0625 86.125 C2.05748603 88.13932183 2.05292295 90.15364484 2.04882812 92.16796875 C2.03863838 97.1120312 2.01906453 102.05593185 2 107 C9.26 107 16.52 107 24 107 C24 72.35 24 37.7 24 2 C16.74 2 9.48 2 2 2 C2.01160156 4.87589844 2.02320313 7.75179687 2.03515625 10.71484375 C2.04294625 13.48819875 2.04902333 16.26155254 2.05493164 19.03491211 C2.05997256 20.96818585 2.06680519 22.90145576 2.07543945 24.8347168 C2.08751565 27.60726872 2.09323057 30.37977041 2.09765625 33.15234375 C2.10281754 34.02213364 2.10797882 34.89192352 2.11329651 35.78807068 C2.11349185 37.85905814 2.06208168 39.92994324 2 42 C1 43 1 43 -1.09437561 43.12025452 C-2.01592941 43.11803391 -2.93748322 43.11581329 -3.88696289 43.11352539 C-4.92796646 43.11344986 -5.96897003 43.11337433 -7.04151917 43.11329651 C-8.1737944 43.10813522 -9.30606964 43.10297394 -10.47265625 43.09765625 C-11.62543564 43.0962413 -12.77821503 43.09482635 -13.96592712 43.09336853 C-17.66481064 43.08775005 -21.36363464 43.07519442 -25.0625 43.0625 C-27.56315017 43.05748738 -30.06380129 43.05292406 -32.56445312 43.04882812 C-38.70965588 43.03777462 -44.85482369 43.02101852 -51 43 C-51 42.67 -51 42.34 -51 42 C-34.17 42 -17.34 42 0 42 C0 28.14 0 14.28 0 0 Z " fill="#1E1E1E" transform="translate(213,878)"/>
<path d="M0 0 C3.5520858 2.31657769 5.60510254 4.26986875 7.875 7.875 C8.84847501 12.59847005 8.33951877 15.94596246 6.1875 20.25 C3.17595388 23.66851181 1.16273267 25.56460411 -3.45703125 26.19140625 C-7.79521667 26.39303106 -10.59190399 26.12700902 -14.5625 24.25 C-18.64728747 20.46409942 -19.90308063 17.42843557 -20.6875 11.9375 C-20.53185135 7.66945018 -18.64864 5.38299293 -15.828125 2.3203125 C-10.94210537 -1.82608031 -6.01108282 -2.16398981 0 0 Z " fill="#161616" transform="translate(284.125,862.125)"/>
<path d="M0 0 C8.25 0 16.5 0 25 0 C25 14.19 25 28.38 25 43 C24.34 42.67 23.68 42.34 23 42 C23 28.8 23 15.6 23 2 C16.07 2 9.14 2 2 2 C2 36.32 2 70.64 2 106 C8.93 106 15.86 106 23 106 C23 92.47 23 78.94 23 65 C23.99 64.505 23.99 64.505 25 64 C25 78.52 25 93.04 25 108 C16.75 108 8.5 108 0 108 C0 72.36 0 36.72 0 0 Z " fill="#060606" transform="translate(137,878)"/>
<path d="M0 0 C0 99.33 0 198.66 0 301 C-17.49 301 -34.98 301 -53 301 C-53 300.67 -53 300.34 -53 300 C-35.84 300 -18.68 300 -1 300 C-1 201.33 -1 102.66 -1 1 C-30.8770165 -0.01560253 -30.8770165 -0.01560253 -60 4 C-63.4375 4.125 -63.4375 4.125 -66 4 C-48.10180849 -7.93212767 -12.64170597 0 0 0 Z " fill="#F7CC5C" transform="translate(511,484)"/>
<path d="M0 0 C15.18 0 30.36 0 46 0 C46 6.27 46 12.54 46 19 C30.82 19 15.64 19 0 19 C0 12.73 0 6.46 0 0 Z M2 2 C2 7.28 2 12.56 2 18 C16.19 18 30.38 18 45 18 C45 12.72 45 7.44 45 2 C30.81 2 16.62 2 2 2 Z " fill="#030303" transform="translate(310,935)"/>
<path d="M0 0 C1.15653076 0.0002417 2.31306152 0.0004834 3.50463867 0.00073242 C4.70467529 0.01096436 5.90471191 0.02119629 7.14111328 0.03173828 C8.81282593 0.03475952 8.81282593 0.03475952 10.51831055 0.0378418 C14.66605772 0.04827532 18.81374605 0.07619785 22.96142578 0.10205078 C36.88330078 0.16392578 36.88330078 0.16392578 51.08642578 0.22705078 C51.08642578 28.93705078 51.08642578 57.64705078 51.08642578 87.22705078 C50.75642578 87.22705078 50.42642578 87.22705078 50.08642578 87.22705078 C50.08642578 58.84705078 50.08642578 30.46705078 50.08642578 1.22705078 C37.43298828 1.41267578 37.43298828 1.41267578 24.52392578 1.60205078 C20.54736938 1.65304932 20.54736938 1.65304932 16.49047852 1.70507812 C14.37531298 1.74030324 12.26015892 1.7762266 10.14501953 1.81298828 C8.51457703 1.83002808 8.51457703 1.83002808 6.85119629 1.84741211 C1.18780604 1.9551132 -3.54295882 2.44614426 -8.91357422 4.22705078 C-12.35107422 4.35205078 -12.35107422 4.35205078 -14.91357422 4.22705078 C-10.08741085 1.00960854 -5.75859022 -0.02559373 0 0 Z " fill="#F6CA5A" transform="translate(459.91357421875,483.77294921875)"/>
<path d="M0 0 C1.68106339 0.00022659 1.68106339 0.00022659 3.39608765 0.00045776 C5.18703354 0.01594162 5.18703354 0.01594162 7.01416016 0.03173828 C8.24864899 0.03456818 9.48313782 0.03739807 10.7550354 0.04031372 C14.68786415 0.05148556 18.62046303 0.07658514 22.55322266 0.10205078 C25.22379224 0.11321253 27.89435967 0.12120959 30.56494141 0.12939453 C37.10277991 0.15141513 43.64048486 0.18486319 50.17822266 0.22705078 C50.17822266 0.55705078 50.17822266 0.88705078 50.17822266 1.22705078 C49.54230698 1.23513763 48.9063913 1.24322449 48.25120544 1.2515564 C41.61592042 1.33779959 34.98092736 1.43731157 28.34594727 1.54443359 C25.8717134 1.5826507 23.39742535 1.61751611 20.9230957 1.64892578 C17.360806 1.69473381 13.79888696 1.7527032 10.23681641 1.81298828 C9.13550888 1.82453949 8.03420135 1.8360907 6.89952087 1.84799194 C1.25187639 1.95583578 -3.46606511 2.45108618 -8.82177734 4.22705078 C-12.25927734 4.35205078 -12.25927734 4.35205078 -14.82177734 4.22705078 C-10.0305091 1.03287195 -5.71905282 -0.02587807 0 0 Z " fill="#E9B037" transform="translate(459.82177734375,483.77294921875)"/>
<path d="M0 0 C0.66 0 1.32 0 2 0 C2.27972656 0.89460937 2.55945313 1.78921875 2.84765625 2.7109375 C5.53262166 10.80900039 8.59589972 17.28399119 14 24 C14.75990234 24.98613281 14.75990234 24.98613281 15.53515625 25.9921875 C18.89374436 30.16579299 22.53296486 33.05175681 27 36 C25.515 36.495 25.515 36.495 24 37 C12.94690685 28.03356556 3.93016226 16.98917894 0 3 C0 2.01 0 1.02 0 0 Z " fill="#CF1E1E" transform="translate(267,667)"/>
<path d="M0 0 C8.91 0 17.82 0 27 0 C26.67 0.99 26.34 1.98 26 3 C18.41 3 10.82 3 3 3 C2.67 3.99 2.34 4.98 2 6 C0 3 0 3 0 0 Z " fill="#0C0C0C" transform="translate(358,878)"/>
<path d="M0 0 C3.60539119 0.27764681 7.20894591 0.57451696 10.8125 0.875 C11.83666016 0.95363281 12.86082031 1.03226563 13.91601562 1.11328125 C15.39038086 1.23896484 15.39038086 1.23896484 16.89453125 1.3671875 C18.25348511 1.47716064 18.25348511 1.47716064 19.63989258 1.58935547 C22 2 22 2 25 4 C21.95809137 4.05421223 18.91716001 4.09377548 15.875 4.125 C15.0190625 4.14175781 14.163125 4.15851562 13.28125 4.17578125 C8.43412707 4.21306681 4.55292095 3.89580643 0 2 C0 1.34 0 0.68 0 0 Z " fill="#4B9F54" transform="translate(718,983)"/>
<path d="M0 0 C0.66 0.33 1.32 0.66 2 1 C0.33333333 2.66666667 -1.33333333 4.33333333 -3 6 C-3.845625 6.94875 -4.69125 7.8975 -5.5625 8.875 C-6.7690625 9.926875 -6.7690625 9.926875 -8 11 C-10.15234375 10.6328125 -10.15234375 10.6328125 -12 10 C-10.56458334 8.70601853 -9.12658648 7.41489889 -7.6875 6.125 C-6.88699219 5.40570313 -6.08648438 4.68640625 -5.26171875 3.9453125 C-3 2 -3 2 0 0 Z " fill="#F6C13A" transform="translate(693,280)"/>
<path d="M0 0 C0.33 0.99 0.66 1.98 1 3 C-0.11878383 4.17262904 -1.24523051 5.33795138 -2.375 6.5 C-3.00148438 7.1496875 -3.62796875 7.799375 -4.2734375 8.46875 C-6 10 -6 10 -8 10 C-8 10.66 -8 11.32 -8 12 C-8.66 12 -9.32 12 -10 12 C-8.43873668 8.16780823 -5.97133075 5.82638778 -3 3 C-2.401875 2.401875 -1.80375 1.80375 -1.1875 1.1875 C-0.795625 0.795625 -0.40375 0.40375 0 0 Z " fill="#F6BF36" transform="translate(436,493)"/>
<path d="M0 0 C1.24546405 2.49092811 0.7767578 3.41080733 0 6 C0.61488281 6.19335938 1.22976563 6.38671875 1.86328125 6.5859375 C3.07564453 6.97652344 3.07564453 6.97652344 4.3125 7.375 C5.11300781 7.63023437 5.91351562 7.88546875 6.73828125 8.1484375 C9 9 9 9 12 11 C5.84777564 10.56826496 2.18082051 9.34594658 -3 6 C-2.01 4.02 -1.02 2.04 0 0 Z " fill="#41974B" transform="translate(802,972)"/>
<path d="M0 0 C1.91731918 0.11455681 3.8338675 0.24206258 5.75 0.375 C7.35101562 0.47941406 7.35101562 0.47941406 8.984375 0.5859375 C11.80206432 0.9728223 13.5830366 1.55686166 16 3 C16 3.66 16 4.32 16 5 C13.5185269 4.55208067 11.0403355 4.09226182 8.5625 3.625 C7.85544922 3.49867188 7.14839844 3.37234375 6.41992188 3.2421875 C4.59948 2.89377757 2.79728352 2.452957 1 2 C0.67 1.34 0.34 0.68 0 0 Z " fill="#4EA058" transform="translate(836,952)"/>
<path d="M0 0 C0.66 0 1.32 0 2 0 C2 0.66 2 1.32 2 2 C4.88019276 3.46652017 7.79308515 4.82047874 10.75 6.125 C11.54921875 6.47820313 12.3484375 6.83140625 13.171875 7.1953125 C13.77515625 7.46085938 14.3784375 7.72640625 15 8 C15 8.66 15 9.32 15 10 C11.10695527 9.43398995 8.50457513 8.3202 5.25 6.125 C4.47140625 5.61195313 3.6928125 5.09890625 2.890625 4.5703125 C1 3 1 3 0 0 Z " fill="#4A9D54" transform="translate(807,940)"/>
<path d="M0 0 C0 3.76738372 -1.12133618 4.92068025 -3.3125 7.9375 C-3.92738281 8.79214844 -4.54226563 9.64679687 -5.17578125 10.52734375 C-6.77346531 12.6929412 -8.37972509 14.85126619 -10 17 C-9.43818225 13.12208721 -8.34625496 10.59084674 -6.125 7.375 C-5.61195313 6.61960937 -5.09890625 5.86421875 -4.5703125 5.0859375 C-3.15921961 3.21150067 -1.7063275 1.6041522 0 0 Z " fill="#316EAB" transform="translate(281,53)"/>
<path d="M0 0 C-5.40724511 3.02805726 -10.82233616 4.30134946 -17 4 C-11.35084394 0.23389596 -6.59922601 -0.22755952 0 0 Z " fill="#F4C550" transform="translate(462,484)"/>
<path d="M0 0 C0.33 0 0.66 0 1 0 C1.15855469 0.68707031 1.31710937 1.37414062 1.48046875 2.08203125 C2.8011468 7.8375128 2.8011468 7.8375128 6.6875 12 C7.450625 12.33 8.21375 12.66 9 13 C9 13.66 9 14.32 9 15 C5.53371274 14.03714243 4.06582992 13.07650505 1.6875 10.3125 C-0.22487823 6.55857236 -0.33242149 4.15526857 0 0 Z " fill="#3F9649" transform="translate(484,872)"/>
<path d="M0 0 C0.99 0.33 1.98 0.66 3 1 C2.34 1 1.68 1 1 1 C0.7525 1.61875 0.505 2.2375 0.25 2.875 C-1.24624309 5.41861325 -2.31072677 5.8926522 -5 7 C-6.11375 7.556875 -6.11375 7.556875 -7.25 8.125 C-7.8275 8.41375 -8.405 8.7025 -9 9 C-9 8.34 -9 7.68 -9 7 C-7.13671875 5.23828125 -7.13671875 5.23828125 -4.6875 3.3125 C-3.48673828 2.34763672 -3.48673828 2.34763672 -2.26171875 1.36328125 C-1.51535156 0.91339844 -0.76898438 0.46351562 0 0 Z " fill="#2D70B1" transform="translate(292,43)"/>
<path d="M0 0 C1.6396875 0.0928125 1.6396875 0.0928125 3.3125 0.1875 C3.6425 0.8475 3.9725 1.5075 4.3125 2.1875 C0.6825 2.5175 -2.9475 2.8475 -6.6875 3.1875 C-3.6875 0.1875 -3.6875 0.1875 0 0 Z " fill="#1C1C1D" transform="translate(277.6875,860.8125)"/>
<path d="M0 0 C4.2742558 1.5830577 6.26531794 4.50568404 9 8 C5.56247993 6.4722133 2.81046312 4.49818944 0 2 C0 1.34 0 0.68 0 0 Z " fill="#3372AF" transform="translate(431,435)"/>
<path d="M0 0 C2.31 1.98 4.62 3.96 7 6 C6.34 6.66 5.68 7.32 5 8 C2.5 5.6875 2.5 5.6875 0 3 C0 2.01 0 1.02 0 0 Z " fill="#4BA056" transform="translate(536,968)"/>
<path d="M0 0 C2.22825644 2.22825644 2.69239369 3.65761628 3.625 6.625 C3.88539063 7.44226563 4.14578125 8.25953125 4.4140625 9.1015625 C4.60742188 9.72804688 4.80078125 10.35453125 5 11 C2.44988427 8.53584323 0.59825639 6.19651277 -1 3 C-0.67 2.01 -0.34 1.02 0 0 Z " fill="#F2BB32" transform="translate(423,753)"/>
</svg>
